<?xml version="1.0" standalone="no"?>
<!DOCTYPE svg PUBLIC "-//W3C//DTD SVG 20010904//EN"
 "http://www.w3.org/TR/2001/REC-SVG-20010904/DTD/svg10.dtd">
<svg version="1.0" xmlns="http://www.w3.org/2000/svg"
 width="1265.000000pt" height="325.000000pt" viewBox="0 0 1265.000000 325.000000"
 preserveAspectRatio="xMidYMid meet">
 
<style type="text/css">
	g {fill:#8C98A4;}
</style>
<g transform="translate(0.000000,325.000000) scale(0.100000,-0.100000)"
fill="#000000" stroke="none">
<path d="M6860 3139 c-118 -50 -219 -94 -223 -98 -14 -14 15 -63 32 -56 97 38
153 26 186 -40 20 -39 20 -60 20 -1015 l0 -975 -23 -43 c-28 -52 -83 -81 -154
-82 -47 0 -48 -1 -48 -30 l0 -30 391 0 390 0 -3 28 c-3 26 -6 27 -77 34 -103
9 -155 51 -172 139 -4 24 -8 542 -9 1152 l0 1107 -47 0 c-37 -1 -98 -22 -263
-91z"/>
<path d="M698 3045 c-339 -53 -553 -245 -598 -537 -13 -90 -1 -209 32 -295 31
-84 113 -198 181 -253 117 -95 242 -145 603 -241 256 -68 334 -96 388 -141
108 -89 98 -253 -20 -357 -83 -73 -176 -101 -334 -101 -169 0 -267 35 -356
127 -49 50 -97 141 -119 227 -8 32 -17 61 -20 64 -7 7 -433 -33 -441 -41 -12
-12 34 -204 68 -289 102 -250 287 -401 568 -463 101 -22 379 -31 495 -16 284
38 475 141 593 323 164 252 141 614 -52 825 -120 132 -260 195 -661 299 -386
100 -485 158 -485 286 0 167 297 266 556 187 107 -33 181 -120 214 -252 l12
-46 187 5 c102 3 207 9 232 13 l47 8 305 -810 306 -810 -24 -63 c-33 -87 -87
-168 -132 -198 -67 -44 -171 -57 -287 -35 -32 6 -60 8 -64 5 -7 -8 27 -329 37
-339 17 -17 152 -29 280 -25 112 4 151 10 217 31 149 49 245 144 322 320 21
46 188 498 372 1004 l335 921 3 -809 2 -809 219 0 219 0 5 508 c4 537 7 565
55 658 26 51 83 103 147 134 66 32 187 40 250 16 49 -19 109 -80 131 -132 26
-62 33 -221 34 -706 l0 -478 220 0 220 0 0 323 1 322 24 -90 c28 -107 52 -165
100 -241 109 -170 294 -288 525 -336 78 -16 119 -19 230 -15 76 3 161 13 195
22 88 24 231 96 300 152 127 103 242 279 280 428 57 224 37 464 -55 651 -81
166 -205 292 -365 369 -141 68 -202 80 -400 80 -148 0 -181 -3 -250 -23 -164
-48 -311 -139 -399 -249 -62 -78 -130 -211 -159 -313 l-24 -83 -7 119 c-16
272 -85 403 -255 488 -106 54 -183 69 -326 63 -189 -7 -311 -58 -441 -183
l-64 -61 0 108 0 109 -432 -2 -432 -3 -187 -565 c-175 -530 -187 -563 -198
-535 -7 16 -94 272 -193 567 l-181 538 -233 0 -234 0 0 28 c-1 60 -32 172 -71
252 -77 156 -221 273 -404 330 -159 49 -420 64 -607 35z m5245 -1003 c68 -30
136 -91 174 -154 87 -143 98 -411 24 -581 -28 -66 -121 -161 -190 -194 -49
-25 -68 -28 -151 -28 -82 0 -103 4 -152 27 -109 51 -185 143 -224 273 -26 84
-26 296 0 380 28 92 59 146 118 201 89 85 144 105 268 101 60 -2 99 -10 133
-25z"/>
<path d="M12292 2845 c-174 -88 -173 -337 1 -426 119 -62 264 -14 323 107 23
46 26 64 22 123 -4 82 -35 135 -106 186 -37 25 -54 30 -115 33 -62 3 -79 0
-125 -23z m196 -11 c132 -55 174 -224 83 -339 l-19 -25 -27 43 c-15 23 -39 54
-53 70 -19 20 -22 27 -10 27 25 0 68 47 68 74 0 41 -21 74 -53 86 -16 5 -68
10 -113 10 l-84 0 0 -160 c0 -153 1 -160 20 -160 18 0 20 7 20 70 l0 70 44 0
c39 0 48 -4 74 -37 16 -21 37 -52 47 -70 11 -18 26 -34 34 -36 11 -2 4 -10
-19 -22 -74 -40 -198 -18 -256 47 -66 72 -79 179 -31 261 54 92 177 133 275
91z m-43 -93 c40 -8 57 -52 30 -81 -15 -16 -30 -20 -87 -20 l-68 0 0 55 0 55
48 -1 c26 -1 60 -4 77 -8z"/>
<path d="M8044 2385 c-153 -33 -299 -122 -399 -242 -68 -82 -156 -256 -185
-368 -30 -114 -36 -267 -16 -383 33 -187 111 -339 245 -473 70 -70 102 -94
171 -127 116 -56 223 -76 360 -69 127 7 199 25 307 78 193 96 341 297 410 557
33 126 37 306 9 427 -69 301 -304 545 -578 600 -93 18 -240 18 -324 0z m165
-105 c147 -24 247 -113 336 -301 65 -137 87 -248 92 -469 6 -236 -9 -345 -62
-456 -78 -161 -237 -241 -399 -201 -134 33 -224 119 -308 294 -107 223 -143
528 -92 778 17 86 70 200 117 252 41 45 122 89 187 102 62 12 58 12 129 1z"/>
<path d="M9466 2380 c-113 -29 -189 -73 -277 -160 -117 -115 -169 -236 -169
-390 0 -138 45 -260 131 -354 44 -48 120 -107 152 -119 7 -2 -34 -49 -90 -104
-199 -197 -219 -328 -65 -433 29 -19 52 -39 52 -44 0 -5 -36 -46 -79 -92 -290
-301 -291 -438 -8 -578 266 -131 643 -137 928 -16 175 74 331 214 395 354 89
194 27 388 -153 479 -97 50 -185 61 -573 77 -306 12 -362 20 -402 60 -47 47
-30 122 49 209 l39 44 89 -18 c112 -22 288 -16 381 13 202 63 346 210 390 398
29 124 3 293 -61 395 l-25 39 148 0 c102 0 152 4 160 12 7 7 12 35 12 63 0 28
-5 56 -12 63 -9 9 -72 12 -220 12 l-208 0 -53 29 c-94 53 -178 73 -322 77
-106 3 -145 0 -209 -16z m271 -90 c90 -39 179 -174 209 -319 17 -86 20 -284 4
-354 -35 -156 -139 -246 -285 -247 -199 0 -326 178 -342 480 -10 178 19 289
97 373 83 91 202 116 317 67z m-291 -1540 c55 -5 232 -16 394 -24 308 -16 381
-25 441 -58 139 -77 58 -291 -146 -387 -98 -47 -176 -62 -345 -68 -246 -8
-433 30 -557 112 -55 37 -92 93 -93 142 0 55 59 175 129 260 30 36 37 37 177
23z"/>
<path d="M10547 2353 c-16 -15 -6 -54 16 -62 114 -44 144 -69 215 -180 20 -31
169 -332 330 -668 l293 -612 -66 -163 c-86 -210 -119 -271 -173 -318 -72 -64
-96 -67 -208 -30 -106 36 -192 42 -240 17 -129 -67 -113 -235 30 -310 57 -29
169 -29 246 1 172 67 314 216 402 423 20 46 186 453 369 904 331 815 333 820
384 872 40 41 60 54 93 59 40 6 42 8 42 40 l0 34 -255 0 -255 0 0 -35 c0 -35
1 -35 43 -35 54 0 103 -29 111 -68 4 -16 2 -51 -4 -78 -11 -50 -371 -954 -380
-954 -7 1 -391 802 -418 872 -39 103 -28 177 30 210 13 7 48 15 78 18 53 5 55
6 55 35 l0 30 -366 3 c-201 1 -368 -1 -372 -5z"/>
</g>
</svg>
