<?xml version="1.0" standalone="no"?>
<!DOCTYPE svg PUBLIC "-//W3C//DTD SVG 20010904//EN"
 "http://www.w3.org/TR/2001/REC-SVG-20010904/DTD/svg10.dtd">
<svg version="1.0" xmlns="http://www.w3.org/2000/svg"
 width="731.000000pt" height="184.000000pt" viewBox="0 0 731.000000 184.000000"
 preserveAspectRatio="xMidYMid meet">
<style type="text/css">
	g {fill:#8C98A4;}
</style>
<g transform="translate(0.000000,184.000000) scale(0.100000,-0.100000)"
fill="#000000" stroke="none">
<path d="M0 920 l0 -920 3650 0 3650 0 0 920 0 920 -3650 0 -3650 0 0 -920z
m2430 633 c0 -5 -9 -44 -19 -88 -26 -107 -36 -115 -157 -115 -52 0 -94 -2 -94
-5 0 -3 -38 -152 -85 -332 -81 -312 -97 -404 -75 -418 30 -18 -1 -25 -114 -25
-92 0 -126 3 -135 14 -8 10 11 101 79 380 49 202 90 372 90 378 0 7 -27 9 -85
6 -68 -4 -91 -9 -116 -27 -17 -13 -32 -21 -35 -19 -8 8 45 171 61 187 14 14
56 16 319 19 l303 3 23 24 c23 25 40 32 40 18z m-1460 -128 l0 -105 -105 0
-105 0 0 -239 0 -238 -145 -82 c-80 -44 -147 -81 -150 -81 -3 0 -5 144 -5 320
l0 320 -90 0 -90 0 0 98 c0 54 3 102 7 105 3 4 159 7 345 7 l338 0 0 -105z
m306 95 c54 -19 58 -38 62 -243 2 -103 -1 -225 -7 -270 -20 -148 -6 -134 -455
-464 -219 -161 -402 -293 -407 -293 -5 0 -9 79 -9 178 0 207 -14 180 135 267
316 183 486 289 495 306 6 11 9 80 8 166 l-3 148 -32 3 -33 3 0 105 0 104 109
0 c59 0 121 -5 137 -10z m3648 0 c93 -21 165 -110 174 -214 5 -61 -25 -218
-74 -388 -54 -190 -104 -271 -198 -321 -39 -21 -55 -22 -307 -25 -296 -4 -299
-3 -299 61 0 18 47 213 105 435 82 315 103 408 94 423 -5 11 -7 24 -4 29 8 13
455 13 509 0z m-1234 -36 c14 -15 14 -15 -27 -193 l-6 -24 32 24 c30 22 41 24
146 23 124 -1 167 -16 193 -65 15 -30 14 -42 -59 -369 -33 -146 -57 -275 -54
-287 5 -23 4 -23 -105 -23 -81 0 -110 3 -111 13 -3 29 6 74 52 279 55 242 58
272 30 288 -31 16 -93 12 -128 -10 -37 -22 -36 -18 -99 -312 -38 -178 -45
-224 -36 -239 12 -18 7 -19 -109 -19 -121 0 -121 0 -116 22 3 13 47 207 97
433 86 383 91 412 77 437 -8 14 -13 29 -9 32 3 3 54 6 112 6 85 0 110 -3 120
-16z m2380 -43 c0 -11 -4 -30 -9 -43 -4 -13 -11 -35 -15 -50 l-6 -28 90 0
c101 0 101 -1 76 -73 -24 -67 -40 -77 -122 -77 l-73 0 -10 -37 c-52 -197 -91
-368 -87 -380 4 -9 25 -13 71 -13 59 0 69 3 91 27 13 14 27 24 30 21 9 -10
-36 -181 -53 -200 -14 -16 -34 -18 -165 -18 -218 0 -214 -9 -143 331 25 118
47 224 50 237 5 19 1 22 -25 22 -35 0 -35 5 -17 95 l13 60 52 6 c63 8 119 43
158 98 24 33 35 41 62 41 25 0 32 -4 32 -19z m951 -51 c29 -16 51 -67 44 -101
-15 -68 -113 -94 -160 -43 -72 77 22 194 116 144z m-1400 -60 c62 -11 94 -41
104 -93 5 -23 -13 -122 -55 -312 -45 -200 -60 -290 -56 -317 l6 -38 -121 0
-121 0 7 37 7 37 -29 -31 c-35 -37 -76 -47 -171 -41 -82 5 -135 29 -163 75
-44 70 -5 262 71 355 47 57 81 68 239 75 144 6 154 9 163 50 12 46 -7 52 -157
55 l-140 3 -3 64 c-2 35 -1 70 2 77 4 11 43 14 184 14 99 0 204 -4 233 -10z
m1122 1 c27 -5 58 -18 72 -31 45 -42 43 -71 -26 -382 -54 -245 -61 -293 -52
-318 l11 -30 -124 0 c-68 0 -124 3 -124 8 0 4 4 23 10 42 l9 35 -20 -28 c-33
-44 -69 -57 -156 -57 -87 0 -142 19 -183 64 -38 42 -40 134 -5 234 61 172 100
199 307 209 l143 8 14 29 c26 54 11 60 -150 66 l-144 5 -3 64 c-2 35 -1 70 2
77 4 11 43 14 188 13 101 0 204 -4 231 -8z m-4052 -27 c58 -34 74 -67 73 -147
-1 -113 -32 -230 -65 -247 -10 -6 -106 -10 -214 -10 l-195 0 -10 -26 c-11 -29
-13 -75 -4 -99 26 -68 263 -71 346 -5 47 38 52 38 44 -2 -23 -114 -68 -180
-135 -197 -116 -29 -258 -20 -347 24 -110 54 -136 163 -80 348 31 103 107 272
139 305 57 61 140 82 304 78 87 -3 119 -7 144 -22z m666 -31 c-9 -85 -33 -103
-140 -103 -116 -1 -156 -12 -193 -54 -47 -55 -101 -249 -87 -317 10 -52 44
-69 139 -69 75 0 89 3 150 35 37 19 69 33 72 30 10 -10 -20 -121 -44 -162 -40
-68 -67 -78 -224 -78 -128 0 -138 2 -192 28 -67 33 -93 69 -110 151 -13 67 3
166 53 324 49 155 105 223 205 251 56 16 83 18 238 20 l139 1 -6 -57z"/>
<path d="M4621 1333 c-5 -21 -39 -155 -76 -298 -36 -143 -68 -268 -71 -277 -5
-16 5 -18 114 -18 177 0 173 -5 252 316 28 111 50 213 50 227 0 68 -35 87
-164 87 l-95 0 -10 -37z"/>
<path d="M6920 1360 c-25 -25 -26 -71 -2 -99 22 -28 75 -31 102 -6 26 24 27
86 2 108 -25 23 -78 21 -102 -3z m94 -16 c4 -10 -1 -25 -9 -34 -11 -12 -13
-20 -6 -25 6 -3 11 -14 11 -23 -1 -13 -6 -10 -21 11 -11 15 -24 27 -29 27 -5
0 -11 -12 -13 -27 -2 -16 -5 -2 -6 30 l-1 57 34 0 c22 0 36 -6 40 -16z"/>
<path d="M6957 1344 c-14 -14 -7 -25 13 -22 12 2 21 8 21 13 0 12 -24 18 -34
9z"/>
<path d="M5294 930 c-48 -19 -84 -99 -70 -154 7 -30 50 -46 127 -46 65 0 58
-8 84 105 8 39 18 78 21 88 5 15 -3 17 -68 16 -40 0 -83 -4 -94 -9z"/>
<path d="M6414 930 c-48 -19 -84 -99 -70 -155 8 -31 60 -48 135 -43 l54 3 23
95 c13 52 23 98 24 103 0 10 -140 8 -166 -3z"/>
<path d="M2440 1169 c-41 -17 -100 -83 -100 -114 0 -3 54 -5 119 -5 l119 0 7
28 c7 36 -8 78 -34 91 -24 13 -77 13 -111 0z"/>
</g>
</svg>
